<svg width="16" height="16" viewBox="0 0 16 16" fill="none" xmlns="http://www.w3.org/2000/svg">
<path d="M13.3333 6H7.33333C6.59695 6 6 6.59695 6 7.33333V13.3333C6 14.0697 6.59695 14.6667 7.33333 14.6667H13.3333C14.0697 14.6667 14.6667 14.0697 14.6667 13.3333V7.33333C14.6667 6.59695 14.0697 6 13.3333 6Z" stroke="inherit" stroke-width="1.5" stroke-linecap="round" stroke-linejoin="round"/>
<path d="M3.3335 9.99994H2.66683C2.31321 9.99994 1.97407 9.85946 1.72402 9.60941C1.47397 9.35936 1.3335 9.02022 1.3335 8.6666V2.6666C1.3335 2.31298 1.47397 1.97384 1.72402 1.72379C1.97407 1.47374 2.31321 1.33327 2.66683 1.33327H8.66683C9.02045 1.33327 9.35959 1.47374 9.60964 1.72379C9.85969 1.97384 10.0002 2.31298 10.0002 2.6666V3.33327" stroke="inherit" stroke-width="1.5" stroke-linecap="round" stroke-linejoin="round"/>
</svg>
