<svg width="280" height="280" viewBox="0 0 280 280" fill="none" xmlns="http://www.w3.org/2000/svg">
<rect width="280" height="280" rx="80" fill="#ECECF2"/>
<g opacity="0.85" filter="url(#filter0_i)">
<path d="M60 95C60 75.67 75.67 60 95 60H185C204.33 60 220 75.67 220 95V185C220 204.33 204.33 220 185 220H95C75.67 220 60 204.33 60 185V95Z" fill="#D3D3E0"/>
<path d="M60 95C60 75.67 75.67 60 95 60H185C204.33 60 220 75.67 220 95V185C220 204.33 204.33 220 185 220H95C75.67 220 60 204.33 60 185V95Z" fill="url(#paint0_linear)"/>
<path d="M60 95C60 75.67 75.67 60 95 60H185C204.33 60 220 75.67 220 95V185C220 204.33 204.33 220 185 220H95C75.67 220 60 204.33 60 185V95Z" fill="url(#paint1_linear)"/>
</g>
<g filter="url(#filter1_i)">
<path d="M135.078 99.9809C137.091 95.9 142.909 95.9 144.922 99.9809L156.068 122.584L181.012 126.233C185.51 126.891 187.304 132.419 184.049 135.593L166 153.189L170.257 178.035C171.026 182.519 166.318 185.937 162.292 183.818L142.556 173.429C140.956 172.587 139.044 172.587 137.444 173.429L117.708 183.818C113.682 185.937 108.974 182.519 109.743 178.035L114 153.189L95.951 135.593C92.6962 132.419 94.4896 126.891 98.9875 126.233L123.932 122.584L135.078 99.9809Z" fill="white" fill-opacity="0.15"/>
<path d="M135.078 99.9809C137.091 95.9 142.909 95.9 144.922 99.9809L156.068 122.584L181.012 126.233C185.51 126.891 187.304 132.419 184.049 135.593L166 153.189L170.257 178.035C171.026 182.519 166.318 185.937 162.292 183.818L142.556 173.429C140.956 172.587 139.044 172.587 137.444 173.429L117.708 183.818C113.682 185.937 108.974 182.519 109.743 178.035L114 153.189L95.951 135.593C92.6962 132.419 94.4896 126.891 98.9875 126.233L123.932 122.584L135.078 99.9809Z" fill="url(#paint2_linear)"/>
</g>
<path d="M147.613 98.654C144.5 92.3423 135.5 92.3423 132.387 98.654L121.938 119.843L98.5532 123.265C91.5965 124.283 88.8226 132.833 93.8568 137.741L110.777 154.237L106.786 177.529C105.598 184.464 112.879 189.75 119.105 186.473L138.841 176.084L137.444 173.429L138.841 176.084C139.567 175.702 140.433 175.702 141.159 176.084L160.895 186.473C167.121 189.75 174.402 184.464 173.214 177.529L169.223 154.237L186.143 137.741C191.177 132.833 188.403 124.283 181.447 123.265L158.062 119.843L147.613 98.654Z" stroke="url(#paint3_linear)" stroke-width="6" stroke-linecap="round" stroke-linejoin="round"/>
<defs>
<filter id="filter0_i" x="60" y="60" width="160" height="160" filterUnits="userSpaceOnUse" color-interpolation-filters="sRGB">
<feFlood flood-opacity="0" result="BackgroundImageFix"/>
<feBlend mode="normal" in="SourceGraphic" in2="BackgroundImageFix" result="shape"/>
<feColorMatrix in="SourceAlpha" type="matrix" values="0 0 0 0 0 0 0 0 0 0 0 0 0 0 0 0 0 0 127 0" result="hardAlpha"/>
<feOffset/>
<feGaussianBlur stdDeviation="2"/>
<feComposite in2="hardAlpha" operator="arithmetic" k2="-1" k3="1"/>
<feColorMatrix type="matrix" values="0 0 0 0 1 0 0 0 0 1 0 0 0 0 1 0 0 0 0.25 0"/>
<feBlend mode="normal" in2="shape" result="effect1_innerShadow"/>
</filter>
<filter id="filter1_i" x="88.2812" y="90.9204" width="103.437" height="99.5552" filterUnits="userSpaceOnUse" color-interpolation-filters="sRGB">
<feFlood flood-opacity="0" result="BackgroundImageFix"/>
<feBlend mode="normal" in="SourceGraphic" in2="BackgroundImageFix" result="shape"/>
<feColorMatrix in="SourceAlpha" type="matrix" values="0 0 0 0 0 0 0 0 0 0 0 0 0 0 0 0 0 0 127 0" result="hardAlpha"/>
<feOffset/>
<feGaussianBlur stdDeviation="4"/>
<feComposite in2="hardAlpha" operator="arithmetic" k2="-1" k3="1"/>
<feColorMatrix type="matrix" values="0 0 0 0 1 0 0 0 0 1 0 0 0 0 1 0 0 0 0.28 0"/>
<feBlend mode="normal" in2="shape" result="effect1_innerShadow"/>
</filter>
<linearGradient id="paint0_linear" x1="60" y1="220" x2="220" y2="60" gradientUnits="userSpaceOnUse">
<stop stop-color="#C2C2D1" stop-opacity="0.7"/>
<stop offset="1" stop-color="#C2C2D1" stop-opacity="0"/>
</linearGradient>
<linearGradient id="paint1_linear" x1="220" y1="60" x2="60" y2="220" gradientUnits="userSpaceOnUse">
<stop stop-color="white" stop-opacity="0.4"/>
<stop offset="1" stop-color="white" stop-opacity="0"/>
</linearGradient>
<linearGradient id="paint2_linear" x1="192" y1="90" x2="88.323" y2="188.446" gradientUnits="userSpaceOnUse">
<stop stop-color="white" stop-opacity="0.8"/>
<stop offset="1" stop-color="white" stop-opacity="0"/>
</linearGradient>
<linearGradient id="paint3_linear" x1="88.3916" y1="188.887" x2="191.282" y2="89.8882" gradientUnits="userSpaceOnUse">
<stop stop-color="white" stop-opacity="0"/>
<stop offset="1" stop-color="white" stop-opacity="0.2"/>
</linearGradient>
</defs>
</svg>
