<svg width="20" height="20" viewBox="0 0 20 20" fill="none" xmlns="http://www.w3.org/2000/svg">
<path d="M9.16626 3.33203H3.33293C2.8909 3.33203 2.46698 3.50763 2.15442 3.82019C1.84185 4.13275 1.66626 4.55667 1.66626 4.9987V16.6654C1.66626 17.1074 1.84185 17.5313 2.15442 17.8439C2.46698 18.1564 2.8909 18.332 3.33293 18.332H14.9996C15.4416 18.332 15.8655 18.1564 16.1781 17.8439C16.4907 17.5313 16.6663 17.1074 16.6663 16.6654V10.832" stroke="inherit" stroke-width="1.5" stroke-linecap="round" stroke-linejoin="round"/>
<path d="M15.4163 2.08222C15.7478 1.7507 16.1974 1.56445 16.6663 1.56445C17.1351 1.56445 17.5847 1.7507 17.9163 2.08222C18.2478 2.41374 18.434 2.86338 18.434 3.33222C18.434 3.80106 18.2478 4.2507 17.9163 4.58222L9.99959 12.4989L6.66626 13.3322L7.49959 9.99889L15.4163 2.08222Z" stroke="inherit" stroke-width="1.5" stroke-linecap="round" stroke-linejoin="round"/>
</svg>
