<svg width="28" height="28" viewBox="0 0 28 28" fill="none" xmlns="http://www.w3.org/2000/svg">
<g clip-path="url(#clip0)">
<path d="M26.522 6.71606L24.7345 24.665H3.26553L1.82544 7.06343L14 13.8798L26.522 6.71606Z" fill="#F2F2F2"/>
<path d="M25.9155 3.33499L13.9999 14.5282L2.08423 3.33499H13.9999H25.9155Z" fill="#F2F2F2"/>
<path d="M3.2655 8.50351V24.665H1.3201C0.591281 24.665 0 24.0738 0 23.3449V6.12318L2.13281 6.18132L3.2655 8.50351Z" fill="#F14336"/>
<path d="M28.0001 6.1232V23.3449C28.0001 24.0738 27.4088 24.665 26.6793 24.665H24.7346V8.50353L25.8115 5.95919L28.0001 6.1232Z" fill="#D32E2A"/>
<path d="M28 4.65511V6.12319L24.7345 8.50352L14 16.3276L3.2655 8.50352L0 6.12319V4.65511C0 3.92629 0.591281 3.33501 1.3201 3.33501H2.08436L14 12.0199L25.9156 3.33501H26.6792C27.4087 3.33501 28 3.92623 28 4.65511Z" fill="#F14336"/>
<path d="M3.2655 8.50351L0 7.99722V6.12318L3.2655 8.50351Z" fill="#D32E2A"/>
</g>
<defs>
<clipPath id="clip0">
<rect width="28" height="28" fill="white"/>
</clipPath>
</defs>
</svg>
