<svg width="20" height="20" viewBox="0 0 20 20" fill="none" xmlns="http://www.w3.org/2000/svg">
<path d="M19.8032 10.2302C19.8032 9.55044 19.7481 8.86699 19.6305 8.19824H10.1982V12.0491H15.5997C15.3755 13.291 14.6553 14.3897 13.6008 15.0878V17.5864H16.8232C18.7156 15.8448 19.8032 13.2726 19.8032 10.2302Z" fill="#4285F4"/>
<path d="M10.197 19.9998C12.894 19.9998 15.1685 19.1143 16.8257 17.5857L13.6032 15.0871C12.7066 15.697 11.5492 16.0424 10.2007 16.0424C7.59181 16.0424 5.37979 14.2824 4.58611 11.916H1.26074V14.4918C2.95834 17.8686 6.41599 19.9998 10.197 19.9998Z" fill="#34A853"/>
<path d="M4.58271 11.9163C4.16383 10.6743 4.16383 9.32947 4.58271 8.0875V5.51172H1.26102C-0.157318 8.33737 -0.157318 11.6664 1.26102 14.4921L4.58271 11.9163Z" fill="#FBBC04"/>
<path d="M10.197 3.95805C11.6227 3.936 13.0006 4.47247 14.0331 5.45722L16.8882 2.60218C15.0803 0.904587 12.6809 -0.0287217 10.197 0.000673888C6.41599 0.000673888 2.95834 2.13185 1.26074 5.51234L4.58244 8.08813C5.37245 5.71811 7.58814 3.95805 10.197 3.95805Z" fill="#EA4335"/>
</svg>
