<svg width="21" height="20" viewBox="0 0 21 20" fill="none" xmlns="http://www.w3.org/2000/svg">
<g clip-path="url(#clip0)">
<path d="M20.3032 10.2302C20.3032 9.55044 20.2481 8.86699 20.1305 8.19824H10.6982V12.0491H16.0997C15.8755 13.291 15.1553 14.3897 14.1008 15.0878V17.5864H17.3232C19.2156 15.8448 20.3032 13.2726 20.3032 10.2302Z" fill="#4285F4"/>
<path d="M10.697 19.9998C13.394 19.9998 15.6685 19.1143 17.3257 17.5857L14.1032 15.0871C13.2066 15.697 12.0492 16.0424 10.7007 16.0424C8.09181 16.0424 5.87979 14.2824 5.08611 11.916H1.76074V14.4918C3.45834 17.8686 6.91599 19.9998 10.697 19.9998Z" fill="#34A853"/>
<path d="M5.08271 11.9163C4.66383 10.6743 4.66383 9.32947 5.08271 8.0875V5.51172H1.76102C0.342682 8.33737 0.342682 11.6664 1.76102 14.4921L5.08271 11.9163Z" fill="#FBBC04"/>
<path d="M10.697 3.95805C12.1227 3.936 13.5006 4.47247 14.5331 5.45722L17.3882 2.60218C15.5803 0.904587 13.1809 -0.0287217 10.697 0.000673888C6.91599 0.000673888 3.45834 2.13185 1.76074 5.51234L5.08244 8.08813C5.87245 5.71811 8.08814 3.95805 10.697 3.95805Z" fill="#EA4335"/>
</g>
<defs>
<clipPath id="clip0">
<rect width="20" height="20" fill="white" transform="translate(0.5)"/>
</clipPath>
</defs>
</svg>
