<svg width="20" height="20" viewBox="0 0 20 20" fill="none" xmlns="http://www.w3.org/2000/svg">
<path d="M9.99996 18.3337C14.6023 18.3337 18.3333 14.6027 18.3333 10.0003C18.3333 5.39795 14.6023 1.66699 9.99996 1.66699C5.39759 1.66699 1.66663 5.39795 1.66663 10.0003C1.66663 14.6027 5.39759 18.3337 9.99996 18.3337Z" stroke="inherit" stroke-width="1.5" stroke-linecap="round" stroke-linejoin="round"/>
<path d="M7.57483 7.50047C7.77075 6.94353 8.15746 6.4739 8.66646 6.17475C9.17546 5.87561 9.77391 5.76626 10.3558 5.86607C10.9377 5.96588 11.4655 6.26841 11.8457 6.72008C12.2259 7.17175 12.434 7.74341 12.4332 8.33381C12.4332 10.0005 9.93316 10.8338 9.93316 10.8338" stroke="inherit" stroke-width="1.5" stroke-linecap="round" stroke-linejoin="round"/>
<path d="M10 14.167H10.0088" stroke="inherit" stroke-width="1.5" stroke-linecap="round" stroke-linejoin="round"/>
</svg>
