<svg width="20" height="20" viewBox="0 0 20 20" fill="none" xmlns="http://www.w3.org/2000/svg">
<path d="M13.9858 1.39719C14.3831 1.06609 14.9673 1.09259 15.3331 1.45831L17.2919 3.41711C17.6576 3.78282 17.6841 4.36707 17.353 4.7644L10.5129 12.9724C10.1365 13.4242 9.45341 13.4552 9.03761 13.0394L5.7108 9.71257C5.295 9.29676 5.32598 8.61369 5.77772 8.23724L13.9858 1.39719Z" stroke="inherit" stroke-width="1.5"/>
<path d="M4.4774 12.382L5.41739 11.066C5.77656 10.5632 6.50128 10.5032 6.93823 10.9402L7.811 11.813C8.24795 12.2499 8.18797 12.9746 7.68513 13.3338L6.36915 14.2738C5.97137 14.5579 5.42647 14.5128 5.08081 14.1671L4.58403 13.6704C4.23837 13.3247 4.19327 12.7798 4.4774 12.382Z" stroke="inherit" stroke-width="1.5"/>
<path d="M2.5 18.75L17.5 18.7571" stroke="inherit" stroke-width="1.5" stroke-linecap="round"/>
</svg>
