<svg width="280" height="280" viewBox="0 0 280 280" fill="none" xmlns="http://www.w3.org/2000/svg">
<rect width="280" height="280" rx="80" fill="#ECECF2"/>
<path fill-rule="evenodd" clip-rule="evenodd" d="M38 80C38 73.3726 43.3726 68 50 68H230C236.627 68 242 73.3726 242 80V104V128C242 134.627 236.627 140 230 140H153C148.582 140 145 143.582 145 148V164C145 170.627 139.627 176 133 176H50C43.3726 176 38 170.627 38 164V140V104V80Z" fill="#D8D8E6"/>
<path fill-rule="evenodd" clip-rule="evenodd" d="M38 80C38 73.3726 43.3726 68 50 68H230C236.627 68 242 73.3726 242 80V104V128C242 134.627 236.627 140 230 140H153C148.582 140 145 143.582 145 148V164C145 170.627 139.627 176 133 176H50C43.3726 176 38 170.627 38 164V140V104V80Z" fill="url(#paint0_linear)"/>
<path fill-rule="evenodd" clip-rule="evenodd" d="M38 80C38 73.3726 43.3726 68 50 68H230C236.627 68 242 73.3726 242 80V104V128C242 134.627 236.627 140 230 140H153C148.582 140 145 143.582 145 148V164C145 170.627 139.627 176 133 176H50C43.3726 176 38 170.627 38 164V140V104V80Z" fill="url(#paint1_linear)"/>
<rect x="46" y="76" width="188" height="20" rx="8" fill="white" fill-opacity="0.35"/>
<rect x="46" y="76" width="188" height="20" rx="8" fill="url(#paint2_linear)"/>
<rect x="46" y="112" width="188" height="20" rx="8" fill="white" fill-opacity="0.35"/>
<rect x="46" y="112" width="188" height="20" rx="8" fill="url(#paint3_linear)"/>
<rect x="46" y="148" width="188" height="20" rx="8" fill="white" fill-opacity="0.35"/>
<rect x="46" y="148" width="188" height="20" rx="8" fill="url(#paint4_linear)"/>
<rect x="46" y="184" width="142" height="20" rx="8" fill="white" fill-opacity="0.35"/>
<rect x="46" y="184" width="142" height="20" rx="8" fill="url(#paint5_linear)"/>
<defs>
<linearGradient id="paint0_linear" x1="140" y1="68" x2="140" y2="176" gradientUnits="userSpaceOnUse">
<stop stop-color="#DADAE6" stop-opacity="0"/>
<stop offset="1" stop-color="#D1D1E0" stop-opacity="0.5"/>
</linearGradient>
<linearGradient id="paint1_linear" x1="140" y1="68" x2="140" y2="176" gradientUnits="userSpaceOnUse">
<stop stop-color="white" stop-opacity="0.2"/>
<stop offset="1" stop-color="white" stop-opacity="0"/>
</linearGradient>
<linearGradient id="paint2_linear" x1="140" y1="76" x2="140" y2="96" gradientUnits="userSpaceOnUse">
<stop stop-color="white" stop-opacity="0.51"/>
<stop offset="1" stop-color="white" stop-opacity="0"/>
</linearGradient>
<linearGradient id="paint3_linear" x1="140" y1="112" x2="140" y2="132" gradientUnits="userSpaceOnUse">
<stop stop-color="white" stop-opacity="0.51"/>
<stop offset="1" stop-color="white" stop-opacity="0"/>
</linearGradient>
<linearGradient id="paint4_linear" x1="140" y1="148" x2="140" y2="168" gradientUnits="userSpaceOnUse">
<stop stop-color="white" stop-opacity="0.51"/>
<stop offset="1" stop-color="white" stop-opacity="0"/>
</linearGradient>
<linearGradient id="paint5_linear" x1="117" y1="184" x2="117" y2="204" gradientUnits="userSpaceOnUse">
<stop stop-color="white" stop-opacity="0.51"/>
<stop offset="1" stop-color="white" stop-opacity="0"/>
</linearGradient>
</defs>
</svg>
