<svg width="16" height="17" stroke-width="1.5" viewBox="0 0 16 17" fill="none" xmlns="http://www.w3.org/2000/svg">
<path d="M11.0481 2.23468C11.4454 1.90358 12.0297 1.93008 12.3954 2.2958L13.7041 3.60454C14.0699 3.97025 14.0964 4.5545 13.7653 4.95183L8.55036 11.2097C8.17391 11.6615 7.49083 11.6924 7.07503 11.2766L4.72331 8.92491C4.3075 8.50911 4.33849 7.82603 4.79023 7.44959L11.0481 2.23468Z" stroke-width="1.5"/>
<path d="M3.6804 10.7674L4.19668 10.0446C4.55585 9.54173 5.28057 9.48175 5.71752 9.9187L6.08186 10.283C6.51881 10.72 6.45883 11.4447 5.95599 11.8039L5.23319 12.3202C4.8354 12.6043 4.29051 12.5592 3.94484 12.2135L3.78703 12.0557C3.44136 11.71 3.39627 11.1651 3.6804 10.7674Z" stroke-width="1.5"/>
<path d="M2 16L14 16.0057" stroke-width="1.5" stroke-linecap="round"/>
</svg>
