 <svg width="16" height="16" viewBox="0 0 16 16" fill="none" xmlns="http://www.w3.org/2000/svg">
<path d="M9.96344 4.8H11.9271C12.3569 4.8 12.7824 4.88277 13.1795 5.04359C13.5766 5.2044 13.9373 5.44011 14.2412 5.73726C14.5451 6.03441 14.7862 6.38717 14.9507 6.77541C15.1152 7.16366 15.1998 7.57977 15.1998 8C15.1998 8.42023 15.1152 8.83635 14.9507 9.22459C14.7862 9.61283 14.5451 9.96559 14.2412 10.2627C13.9373 10.5599 13.5766 10.7956 13.1795 10.9564C12.7824 11.1172 12.3569 11.2 11.9271 11.2H9.96344M6.03617 11.2H4.07253C3.64275 11.2 3.21718 11.1172 2.82011 10.9564C2.42305 10.7956 2.06227 10.5599 1.75836 10.2627C1.14461 9.66263 0.799805 8.84869 0.799805 8C0.799805 7.15131 1.14461 6.33737 1.75836 5.73726C2.37212 5.13714 3.20455 4.8 4.07253 4.8H6.03617" stroke="#17171A" stroke-width="1.5" stroke-linecap="round" stroke-linejoin="round"/>
<path d="M5.6001 8H10.4001" stroke="#17171A" stroke-width="1.5" stroke-linecap="round" stroke-linejoin="round"/>
</svg>
