<svg width="20" height="20" viewBox="0 0 20 20" fill="none" xmlns="http://www.w3.org/2000/svg">
<path d="M12.4545 6H14.9091C15.4463 6 15.9783 6.10346 16.4746 6.30448C16.9709 6.5055 17.4219 6.80014 17.8018 7.17157C18.1817 7.54301 18.483 7.98396 18.6886 8.46927C18.8942 8.95457 19 9.47471 19 10C19 10.5253 18.8942 11.0454 18.6886 11.5307C18.483 12.016 18.1817 12.457 17.8018 12.8284C17.4219 13.1999 16.9709 13.4945 16.4746 13.6955C15.9783 13.8965 15.4463 14 14.9091 14H12.4545M7.54545 14H5.09091C4.55368 14 4.02172 13.8965 3.52539 13.6955C3.02905 13.4945 2.57808 13.1999 2.1982 12.8284C1.43101 12.0783 1 11.0609 1 10C1 8.93913 1.43101 7.92172 2.1982 7.17157C2.96539 6.42143 4.00593 6 5.09091 6H7.54545" stroke="inherit" stroke-width="1.5" stroke-linecap="round" stroke-linejoin="round"/>
<path d="M7 10H13" stroke="inherit" stroke-width="1.5" stroke-linecap="round" stroke-linejoin="round"/>
</svg>
