<svg width="34" height="16" viewBox="0 0 34 16" fill="none" xmlns="http://www.w3.org/2000/svg">
<path d="M0.495704 15V0.599999H3.0557V9.1L6.5757 5.08H9.6157L5.5557 9.6L10.2757 15H7.0757L3.0557 10.02V15H0.495704ZM15.1829 15.24C13.9429 15.24 12.9829 14.8533 12.3029 14.08C11.6362 13.3067 11.3029 12.1733 11.3029 10.68V5.08H13.8429V10.44C13.8429 11.2933 14.0162 11.9467 14.3629 12.4C14.7096 12.8533 15.2562 13.08 16.0029 13.08C16.7096 13.08 17.2896 12.8267 17.7429 12.32C18.2096 11.8133 18.4429 11.1067 18.4429 10.2V5.08H21.0029V15H18.7429L18.5429 13.32C18.2362 13.9067 17.7896 14.3733 17.2029 14.72C16.6296 15.0667 15.9562 15.24 15.1829 15.24ZM23.2309 15V5.08H25.5109L25.7509 6.94C26.1109 6.3 26.5975 5.79333 27.2109 5.42C27.8375 5.03333 28.5709 4.84 29.4109 4.84V7.54H28.6909C28.1309 7.54 27.6309 7.62667 27.1909 7.8C26.7509 7.97333 26.4042 8.27333 26.1509 8.7C25.9109 9.12667 25.7909 9.72 25.7909 10.48V15H23.2309ZM32.1405 3.54C31.6739 3.54 31.2872 3.4 30.9805 3.12C30.6872 2.84 30.5405 2.48667 30.5405 2.06C30.5405 1.63333 30.6872 1.28667 30.9805 1.02C31.2872 0.739999 31.6739 0.599999 32.1405 0.599999C32.6072 0.599999 32.9872 0.739999 33.2805 1.02C33.5872 1.28667 33.7405 1.63333 33.7405 2.06C33.7405 2.48667 33.5872 2.84 33.2805 3.12C32.9872 3.4 32.6072 3.54 32.1405 3.54ZM30.8605 15V5.08H33.4205V15H30.8605Z" fill="#17171A"/>
</svg>
