<svg width="115" height="19" viewBox="0 0 115 19" fill="none" xmlns="http://www.w3.org/2000/svg">
<path d="M8.65219 18.288C6.95619 18.288 5.50019 17.928 4.28419 17.208C3.06819 16.472 2.13219 15.456 1.47619 14.16C0.820186 12.848 0.492186 11.336 0.492186 9.624C0.492186 7.912 0.820186 6.4 1.47619 5.088C2.13219 3.776 3.06819 2.752 4.28419 2.016C5.50019 1.28 6.95619 0.912 8.65219 0.912C10.6682 0.912 12.3162 1.416 13.5962 2.424C14.8922 3.416 15.7002 4.816 16.0202 6.624H12.6362C12.4282 5.712 11.9802 5 11.2922 4.488C10.6202 3.96 9.72419 3.696 8.60419 3.696C7.05219 3.696 5.83619 4.224 4.95619 5.28C4.07619 6.336 3.63619 7.784 3.63619 9.624C3.63619 11.464 4.07619 12.912 4.95619 13.968C5.83619 15.008 7.05219 15.528 8.60419 15.528C9.72419 15.528 10.6202 15.288 11.2922 14.808C11.9802 14.312 12.4282 13.632 12.6362 12.768H16.0202C15.7002 14.496 14.8922 15.848 13.5962 16.824C12.3162 17.8 10.6682 18.288 8.65219 18.288ZM22.6515 18.288C21.1635 18.288 20.0115 17.824 19.1955 16.896C18.3955 15.968 17.9955 14.608 17.9955 12.816V6.096H21.0435V12.528C21.0435 13.552 21.2515 14.336 21.6675 14.88C22.0835 15.424 22.7395 15.696 23.6355 15.696C24.4835 15.696 25.1795 15.392 25.7235 14.784C26.2835 14.176 26.5635 13.328 26.5635 12.24V6.096H29.6355V18H26.9235L26.6835 15.984C26.3155 16.688 25.7795 17.248 25.0755 17.664C24.3875 18.08 23.5795 18.288 22.6515 18.288ZM32.3091 18V6.096H35.0451L35.3331 8.328C35.7651 7.56 36.3491 6.952 37.0851 6.504C37.8371 6.04 38.7171 5.808 39.7251 5.808V9.048H38.8611C38.1891 9.048 37.5891 9.152 37.0611 9.36C36.5331 9.568 36.1171 9.928 35.8131 10.44C35.5251 10.952 35.3811 11.664 35.3811 12.576V18H32.3091ZM43.0007 4.248C42.4407 4.248 41.9767 4.08 41.6087 3.744C41.2567 3.408 41.0807 2.984 41.0807 2.472C41.0807 1.96 41.2567 1.544 41.6087 1.224C41.9767 0.887999 42.4407 0.719999 43.0007 0.719999C43.5607 0.719999 44.0167 0.887999 44.3687 1.224C44.7367 1.544 44.9207 1.96 44.9207 2.472C44.9207 2.984 44.7367 3.408 44.3687 3.744C44.0167 4.08 43.5607 4.248 43.0007 4.248ZM41.4647 18V6.096H44.5367V18H41.4647ZM52.9751 18.288C51.8231 18.288 50.7831 18.024 49.8551 17.496C48.9431 16.968 48.2151 16.24 47.6711 15.312C47.1431 14.368 46.8791 13.28 46.8791 12.048C46.8791 10.816 47.1511 9.736 47.6951 8.808C48.2391 7.864 48.9671 7.128 49.8791 6.6C50.8071 6.072 51.8471 5.808 52.9991 5.808C54.1351 5.808 55.1591 6.072 56.0711 6.6C56.9991 7.128 57.7271 7.864 58.2551 8.808C58.7991 9.736 59.0711 10.816 59.0711 12.048C59.0711 13.28 58.7991 14.368 58.2551 15.312C57.7271 16.24 56.9991 16.968 56.0711 17.496C55.1431 18.024 54.1111 18.288 52.9751 18.288ZM52.9751 15.624C53.7751 15.624 54.4711 15.328 55.0631 14.736C55.6551 14.128 55.9511 13.232 55.9511 12.048C55.9511 10.864 55.6551 9.976 55.0631 9.384C54.4711 8.776 53.7831 8.472 52.9991 8.472C52.1831 8.472 51.4791 8.776 50.8871 9.384C50.3111 9.976 50.0231 10.864 50.0231 12.048C50.0231 13.232 50.3111 14.128 50.8871 14.736C51.4791 15.328 52.1751 15.624 52.9751 15.624ZM66.8098 18.288C65.6898 18.288 64.6898 18.016 63.8098 17.472C62.9298 16.928 62.2338 16.184 61.7218 15.24C61.2098 14.296 60.9538 13.224 60.9538 12.024C60.9538 10.824 61.2098 9.76 61.7218 8.832C62.2338 7.888 62.9298 7.152 63.8098 6.624C64.6898 6.08 65.6898 5.808 66.8098 5.808C67.7058 5.808 68.4898 5.976 69.1618 6.312C69.8338 6.648 70.3778 7.12 70.7938 7.728V0.719999H73.8658V18H71.1298L70.7938 16.296C70.4098 16.824 69.8978 17.288 69.2578 17.688C68.6338 18.088 67.8178 18.288 66.8098 18.288ZM67.4578 15.6C68.4498 15.6 69.2578 15.272 69.8818 14.616C70.5218 13.944 70.8418 13.088 70.8418 12.048C70.8418 11.008 70.5218 10.16 69.8818 9.504C69.2578 8.832 68.4498 8.496 67.4578 8.496C66.4818 8.496 65.6738 8.824 65.0338 9.48C64.3938 10.136 64.0738 10.984 64.0738 12.024C64.0738 13.064 64.3938 13.92 65.0338 14.592C65.6738 15.264 66.4818 15.6 67.4578 15.6ZM82.2981 18.288C81.0981 18.288 80.0341 18.032 79.1061 17.52C78.1781 17.008 77.4501 16.288 76.9221 15.36C76.3941 14.432 76.1301 13.36 76.1301 12.144C76.1301 10.912 76.3861 9.816 76.8981 8.856C77.4261 7.896 78.1461 7.152 79.0581 6.624C79.9861 6.08 81.0741 5.808 82.3221 5.808C83.4901 5.808 84.5221 6.064 85.4181 6.576C86.3141 7.088 87.0101 7.792 87.5061 8.688C88.0181 9.568 88.2741 10.552 88.2741 11.64C88.2741 11.816 88.2661 12 88.2501 12.192C88.2501 12.384 88.2421 12.584 88.2261 12.792H79.1781C79.2421 13.72 79.5621 14.448 80.1381 14.976C80.7301 15.504 81.4421 15.768 82.2741 15.768C82.8981 15.768 83.4181 15.632 83.8341 15.36C84.2661 15.072 84.5861 14.704 84.7941 14.256H87.9141C87.6901 15.008 87.3141 15.696 86.7861 16.32C86.2741 16.928 85.6341 17.408 84.8661 17.76C84.1141 18.112 83.2581 18.288 82.2981 18.288ZM82.3221 8.304C81.5701 8.304 80.9061 8.52 80.3301 8.952C79.7541 9.368 79.3861 10.008 79.2261 10.872H85.1541C85.1061 10.088 84.8181 9.464 84.2901 9C83.7621 8.536 83.1061 8.304 82.3221 8.304ZM95.2978 18.288C94.2418 18.288 93.3138 18.12 92.5138 17.784C91.7138 17.432 91.0738 16.952 90.5938 16.344C90.1138 15.736 89.8258 15.032 89.7298 14.232H92.8258C92.9218 14.696 93.1778 15.096 93.5938 15.432C94.0258 15.752 94.5778 15.912 95.2498 15.912C95.9218 15.912 96.4098 15.776 96.7138 15.504C97.0338 15.232 97.1938 14.92 97.1938 14.568C97.1938 14.056 96.9698 13.712 96.5218 13.536C96.0738 13.344 95.4498 13.16 94.6498 12.984C94.1378 12.872 93.6178 12.736 93.0898 12.576C92.5618 12.416 92.0738 12.216 91.6258 11.976C91.1938 11.72 90.8418 11.4 90.5698 11.016C90.2978 10.616 90.1618 10.128 90.1618 9.552C90.1618 8.496 90.5778 7.608 91.4098 6.888C92.2578 6.168 93.4418 5.808 94.9618 5.808C96.3698 5.808 97.4898 6.136 98.3218 6.792C99.1698 7.448 99.6738 8.352 99.8338 9.504H96.9298C96.7538 8.624 96.0898 8.184 94.9378 8.184C94.3618 8.184 93.9138 8.296 93.5938 8.52C93.2898 8.744 93.1378 9.024 93.1378 9.36C93.1378 9.712 93.3698 9.992 93.8338 10.2C94.2978 10.408 94.9138 10.6 95.6818 10.776C96.5138 10.968 97.2738 11.184 97.9618 11.424C98.6658 11.648 99.2258 11.992 99.6418 12.456C100.058 12.904 100.266 13.552 100.266 14.4C100.282 15.136 100.09 15.8 99.6898 16.392C99.2898 16.984 98.7138 17.448 97.9618 17.784C97.2098 18.12 96.3218 18.288 95.2978 18.288ZM102.507 18V0.719999H105.579V10.92L109.803 6.096H113.451L108.579 11.52L114.243 18H110.403L105.579 12.024V18H102.507Z" fill="#17171A"/>
</svg>
