<svg width="119" height="19" viewBox="0 0 119 19" fill="none" xmlns="http://www.w3.org/2000/svg">
<path d="M8.73219 18.288C7.03619 18.288 5.58019 17.928 4.36419 17.208C3.14819 16.472 2.21219 15.456 1.55619 14.16C0.900188 12.848 0.572188 11.336 0.572188 9.624C0.572188 7.912 0.900188 6.4 1.55619 5.088C2.21219 3.776 3.14819 2.752 4.36419 2.016C5.58019 1.28 7.03619 0.912 8.73219 0.912C10.7482 0.912 12.3962 1.416 13.6762 2.424C14.9722 3.416 15.7802 4.816 16.1002 6.624H12.7162C12.5082 5.712 12.0602 5 11.3722 4.488C10.7002 3.96 9.80419 3.696 8.68419 3.696C7.13219 3.696 5.91619 4.224 5.03619 5.28C4.15619 6.336 3.71619 7.784 3.71619 9.624C3.71619 11.464 4.15619 12.912 5.03619 13.968C5.91619 15.008 7.13219 15.528 8.68419 15.528C9.80419 15.528 10.7002 15.288 11.3722 14.808C12.0602 14.312 12.5082 13.632 12.7162 12.768H16.1002C15.7802 14.496 14.9722 15.848 13.6762 16.824C12.3962 17.8 10.7482 18.288 8.73219 18.288ZM23.2115 18.288C21.7235 18.288 20.5715 17.824 19.7555 16.896C18.9555 15.968 18.5555 14.608 18.5555 12.816V6.096H21.6035V12.528C21.6035 13.552 21.8115 14.336 22.2275 14.88C22.6435 15.424 23.2995 15.696 24.1955 15.696C25.0435 15.696 25.7395 15.392 26.2835 14.784C26.8435 14.176 27.1235 13.328 27.1235 12.24V6.096H30.1955V18H27.4835L27.2435 15.984C26.8755 16.688 26.3395 17.248 25.6355 17.664C24.9475 18.08 24.1395 18.288 23.2115 18.288ZM33.3491 18V6.096H36.0851L36.3731 8.328C36.8051 7.56 37.3891 6.952 38.1251 6.504C38.8771 6.04 39.7571 5.808 40.7651 5.808V9.048H39.9011C39.2291 9.048 38.6291 9.152 38.1011 9.36C37.5731 9.568 37.1571 9.928 36.8531 10.44C36.5651 10.952 36.4211 11.664 36.4211 12.576V18H33.3491ZM44.5207 4.248C43.9607 4.248 43.4967 4.08 43.1287 3.744C42.7767 3.408 42.6007 2.984 42.6007 2.472C42.6007 1.96 42.7767 1.544 43.1287 1.224C43.4967 0.887999 43.9607 0.719999 44.5207 0.719999C45.0807 0.719999 45.5367 0.887999 45.8887 1.224C46.2567 1.544 46.4407 1.96 46.4407 2.472C46.4407 2.984 46.2567 3.408 45.8887 3.744C45.5367 4.08 45.0807 4.248 44.5207 4.248ZM42.9847 18V6.096H46.0567V18H42.9847ZM54.9751 18.288C53.8231 18.288 52.7831 18.024 51.8551 17.496C50.9431 16.968 50.2151 16.24 49.6711 15.312C49.1431 14.368 48.8791 13.28 48.8791 12.048C48.8791 10.816 49.1511 9.736 49.6951 8.808C50.2391 7.864 50.9671 7.128 51.8791 6.6C52.8071 6.072 53.8471 5.808 54.9991 5.808C56.1351 5.808 57.1591 6.072 58.0711 6.6C58.9991 7.128 59.7271 7.864 60.2551 8.808C60.7991 9.736 61.0711 10.816 61.0711 12.048C61.0711 13.28 60.7991 14.368 60.2551 15.312C59.7271 16.24 58.9991 16.968 58.0711 17.496C57.1431 18.024 56.1111 18.288 54.9751 18.288ZM54.9751 15.624C55.7751 15.624 56.4711 15.328 57.0631 14.736C57.6551 14.128 57.9511 13.232 57.9511 12.048C57.9511 10.864 57.6551 9.976 57.0631 9.384C56.4711 8.776 55.7831 8.472 54.9991 8.472C54.1831 8.472 53.4791 8.776 52.8871 9.384C52.3111 9.976 52.0231 10.864 52.0231 12.048C52.0231 13.232 52.3111 14.128 52.8871 14.736C53.4791 15.328 54.1751 15.624 54.9751 15.624ZM69.2898 18.288C68.1698 18.288 67.1698 18.016 66.2898 17.472C65.4098 16.928 64.7138 16.184 64.2018 15.24C63.6898 14.296 63.4338 13.224 63.4338 12.024C63.4338 10.824 63.6898 9.76 64.2018 8.832C64.7138 7.888 65.4098 7.152 66.2898 6.624C67.1698 6.08 68.1698 5.808 69.2898 5.808C70.1858 5.808 70.9698 5.976 71.6418 6.312C72.3138 6.648 72.8578 7.12 73.2738 7.728V0.719999H76.3458V18H73.6098L73.2738 16.296C72.8898 16.824 72.3778 17.288 71.7378 17.688C71.1138 18.088 70.2978 18.288 69.2898 18.288ZM69.9378 15.6C70.9298 15.6 71.7378 15.272 72.3618 14.616C73.0018 13.944 73.3218 13.088 73.3218 12.048C73.3218 11.008 73.0018 10.16 72.3618 9.504C71.7378 8.832 70.9298 8.496 69.9378 8.496C68.9618 8.496 68.1538 8.824 67.5138 9.48C66.8738 10.136 66.5538 10.984 66.5538 12.024C66.5538 13.064 66.8738 13.92 67.5138 14.592C68.1538 15.264 68.9618 15.6 69.9378 15.6ZM85.2581 18.288C84.0581 18.288 82.9941 18.032 82.0661 17.52C81.1381 17.008 80.4101 16.288 79.8821 15.36C79.3541 14.432 79.0901 13.36 79.0901 12.144C79.0901 10.912 79.3461 9.816 79.8581 8.856C80.3861 7.896 81.1061 7.152 82.0181 6.624C82.9461 6.08 84.0341 5.808 85.2821 5.808C86.4501 5.808 87.4821 6.064 88.3781 6.576C89.2741 7.088 89.9701 7.792 90.4661 8.688C90.9781 9.568 91.2341 10.552 91.2341 11.64C91.2341 11.816 91.2261 12 91.2101 12.192C91.2101 12.384 91.2021 12.584 91.1861 12.792H82.1381C82.2021 13.72 82.5221 14.448 83.0981 14.976C83.6901 15.504 84.4021 15.768 85.2341 15.768C85.8581 15.768 86.3781 15.632 86.7941 15.36C87.2261 15.072 87.5461 14.704 87.7541 14.256H90.8741C90.6501 15.008 90.2741 15.696 89.7461 16.32C89.2341 16.928 88.5941 17.408 87.8261 17.76C87.0741 18.112 86.2181 18.288 85.2581 18.288ZM85.2821 8.304C84.5301 8.304 83.8661 8.52 83.2901 8.952C82.7141 9.368 82.3461 10.008 82.1861 10.872H88.1141C88.0661 10.088 87.7781 9.464 87.2501 9C86.7221 8.536 86.0661 8.304 85.2821 8.304ZM98.7378 18.288C97.6818 18.288 96.7538 18.12 95.9538 17.784C95.1538 17.432 94.5138 16.952 94.0338 16.344C93.5538 15.736 93.2658 15.032 93.1698 14.232H96.2658C96.3618 14.696 96.6178 15.096 97.0338 15.432C97.4658 15.752 98.0178 15.912 98.6898 15.912C99.3618 15.912 99.8498 15.776 100.154 15.504C100.474 15.232 100.634 14.92 100.634 14.568C100.634 14.056 100.41 13.712 99.9618 13.536C99.5138 13.344 98.8898 13.16 98.0898 12.984C97.5778 12.872 97.0578 12.736 96.5298 12.576C96.0018 12.416 95.5138 12.216 95.0658 11.976C94.6338 11.72 94.2818 11.4 94.0098 11.016C93.7378 10.616 93.6018 10.128 93.6018 9.552C93.6018 8.496 94.0178 7.608 94.8498 6.888C95.6978 6.168 96.8818 5.808 98.4018 5.808C99.8098 5.808 100.93 6.136 101.762 6.792C102.61 7.448 103.114 8.352 103.274 9.504H100.37C100.194 8.624 99.5298 8.184 98.3778 8.184C97.8018 8.184 97.3538 8.296 97.0338 8.52C96.7298 8.744 96.5778 9.024 96.5778 9.36C96.5778 9.712 96.8098 9.992 97.2738 10.2C97.7378 10.408 98.3538 10.6 99.1218 10.776C99.9538 10.968 100.714 11.184 101.402 11.424C102.106 11.648 102.666 11.992 103.082 12.456C103.498 12.904 103.706 13.552 103.706 14.4C103.722 15.136 103.53 15.8 103.13 16.392C102.73 16.984 102.154 17.448 101.402 17.784C100.65 18.12 99.7618 18.288 98.7378 18.288ZM106.427 18V0.719999H109.499V10.92L113.723 6.096H117.371L112.499 11.52L118.163 18H114.323L109.499 12.024V18H106.427Z" fill="#17171A"/>
</svg>
