<svg width="106" height="40" viewBox="0 0 106 40" fill="none" xmlns="http://www.w3.org/2000/svg">
<path d="M53.818 21.404L51.1984 24.0944V28.3188H48.1304V11.7988H51.1984V20.2712L59.364 11.7988H62.8096L55.8712 19.1856L63.2344 28.3188H59.6472L53.818 21.404Z" fill="#ABABB3"/>
<path d="M64.5681 10.8076H67.5181V28.3188H64.5681V10.8076Z" fill="#ABABB3"/>
<path d="M75.0244 15.5748C76.8809 15.5748 78.2969 16.0232 79.2724 16.92C80.2636 17.8011 80.7592 19.1384 80.7592 20.932V28.3188H77.9744V26.7848C77.6125 27.3355 77.0933 27.7603 76.4168 28.0592C75.756 28.3424 74.9536 28.484 74.0096 28.484C73.0656 28.484 72.2396 28.3267 71.5316 28.012C70.8236 27.6816 70.2729 27.2332 69.8796 26.6668C69.502 26.0847 69.3132 25.4318 69.3132 24.708C69.3132 23.5752 69.7301 22.6706 70.564 21.994C71.4136 21.3018 72.7431 20.9556 74.5524 20.9556H77.8092V20.7668C77.8092 19.8858 77.5417 19.2092 77.0068 18.7372C76.4876 18.2652 75.7088 18.0292 74.6704 18.0292C73.9624 18.0292 73.2623 18.1394 72.57 18.3596C71.8935 18.5799 71.3192 18.8867 70.8472 19.28L69.6908 17.1324C70.3516 16.629 71.1461 16.2435 72.0744 15.976C73.0027 15.7086 73.986 15.5748 75.0244 15.5748ZM74.6232 26.3364C75.3627 26.3364 76.0156 26.1712 76.582 25.8408C77.1641 25.4947 77.5732 25.007 77.8092 24.3776V22.9144H74.7648C73.0656 22.9144 72.216 23.473 72.216 24.59C72.216 25.125 72.4284 25.5498 72.8532 25.8644C73.278 26.1791 73.868 26.3364 74.6232 26.3364Z" fill="#ABABB3"/>
<path d="M85.7016 17.5572C86.5512 16.2356 88.0458 15.5748 90.1856 15.5748V18.3832C89.9338 18.336 89.7057 18.3124 89.5012 18.3124C88.3526 18.3124 87.4558 18.6507 86.8108 19.3272C86.1657 19.988 85.8432 20.9478 85.8432 22.2064V28.3188H82.8932V15.7164H85.7016V17.5572Z" fill="#ABABB3"/>
<path d="M104.949 15.7164L99.049 29.3336C98.4984 30.7024 97.8297 31.6621 97.043 32.2128C96.2564 32.7792 95.3045 33.0624 94.1874 33.0624C93.5581 33.0624 92.9366 32.9601 92.323 32.7556C91.7094 32.5511 91.206 32.2679 90.8126 31.906L91.9926 29.7348C92.2758 30.0023 92.6062 30.2147 92.9838 30.372C93.3772 30.5294 93.7705 30.608 94.1638 30.608C94.683 30.608 95.1078 30.4743 95.4382 30.2068C95.7844 29.9394 96.099 29.491 96.3822 28.8616L96.5946 28.366L91.0958 15.7164H94.1638L98.1286 25.0384L102.117 15.7164H104.949Z" fill="#ABABB3"/>
<rect x="1.35999" y="1.36035" width="37.28" height="37.28" rx="7.2" fill="#EDEDF0"/>
<path fill-rule="evenodd" clip-rule="evenodd" d="M14.125 8.40039C12.3577 8.40039 10.925 9.83308 10.925 11.6004V28.2381C10.925 28.2444 10.9251 28.2507 10.9251 28.2569V28.4C10.9251 30.1673 12.3578 31.6 14.1251 31.6H25.8694C28.464 31.6 29.9799 28.6743 28.4837 26.5546L23.857 20.0002L28.4836 13.4458C29.9799 11.3261 28.4639 8.40039 25.8693 8.40039H14.125Z" fill="#ABABB3"/>
</svg>
