<svg width="106" height="40" viewBox="0 0 106 40" fill="none" xmlns="http://www.w3.org/2000/svg">
<path d="M53.818 21.405L51.1984 24.0954V28.3198H48.1304V11.7998H51.1984V20.2722L59.364 11.7998H62.8096L55.8712 19.1866L63.2344 28.3198H59.6472L53.818 21.405Z" fill="#ABABB3"/>
<path d="M64.5681 10.8086H67.5181V28.3198H64.5681V10.8086Z" fill="#ABABB3"/>
<path d="M75.0244 15.5758C76.8809 15.5758 78.2969 16.0242 79.2724 16.921C80.2636 17.8021 80.7592 19.1394 80.7592 20.933V28.3198H77.9744V26.7858C77.6125 27.3365 77.0933 27.7613 76.4168 28.0602C75.756 28.3434 74.9536 28.485 74.0096 28.485C73.0656 28.485 72.2396 28.3277 71.5316 28.013C70.8236 27.6826 70.2729 27.2342 69.8796 26.6678C69.502 26.0857 69.3132 25.4327 69.3132 24.709C69.3132 23.5762 69.7301 22.6715 70.564 21.995C71.4136 21.3027 72.7431 20.9566 74.5524 20.9566H77.8092V20.7678C77.8092 19.8867 77.5417 19.2102 77.0068 18.7382C76.4876 18.2662 75.7088 18.0302 74.6704 18.0302C73.9624 18.0302 73.2623 18.1403 72.57 18.3606C71.8935 18.5809 71.3192 18.8877 70.8472 19.281L69.6908 17.1334C70.3516 16.6299 71.1461 16.2445 72.0744 15.977C73.0027 15.7095 73.986 15.5758 75.0244 15.5758ZM74.6232 26.3374C75.3627 26.3374 76.0156 26.1722 76.582 25.8418C77.1641 25.4957 77.5732 25.0079 77.8092 24.3786V22.9154H74.7648C73.0656 22.9154 72.216 23.4739 72.216 24.591C72.216 25.1259 72.4284 25.5507 72.8532 25.8654C73.278 26.1801 73.868 26.3374 74.6232 26.3374Z" fill="#ABABB3"/>
<path d="M85.7016 17.5582C86.5512 16.2366 88.0458 15.5758 90.1856 15.5758V18.3842C89.9338 18.337 89.7057 18.3134 89.5012 18.3134C88.3526 18.3134 87.4558 18.6517 86.8108 19.3282C86.1657 19.989 85.8432 20.9487 85.8432 22.2074V28.3198H82.8932V15.7174H85.7016V17.5582Z" fill="#ABABB3"/>
<path d="M104.949 15.7174L99.049 29.3346C98.4984 30.7034 97.8297 31.6631 97.043 32.2138C96.2564 32.7802 95.3045 33.0634 94.1874 33.0634C93.5581 33.0634 92.9366 32.9611 92.323 32.7566C91.7094 32.5521 91.206 32.2689 90.8126 31.907L91.9926 29.7358C92.2758 30.0033 92.6062 30.2157 92.9838 30.373C93.3772 30.5303 93.7705 30.609 94.1638 30.609C94.683 30.609 95.1078 30.4753 95.4382 30.2078C95.7844 29.9403 96.099 29.4919 96.3822 28.8626L96.5946 28.367L91.0958 15.7174H94.1638L98.1286 25.0394L102.117 15.7174H104.949Z" fill="#ABABB3"/>
<rect x="1.36005" y="1.35938" width="37.28" height="37.28" rx="7.2" fill="#EDEDF0"/>
<path fill-rule="evenodd" clip-rule="evenodd" d="M14.1251 8.40039C12.3578 8.40039 10.9251 9.83308 10.9251 11.6004V28.2381C10.9251 28.2444 10.9251 28.2507 10.9252 28.2569V28.4C10.9252 30.1673 12.3578 31.6 14.1252 31.6H25.8694C28.464 31.6 29.98 28.6743 28.4837 26.5546L23.857 20.0002L28.4837 13.4458C29.9799 11.3261 28.464 8.40039 25.8694 8.40039H14.1251Z" fill="#ABABB3"/>
</svg>
