<svg width="56" height="93" viewBox="0 0 56 93" fill="none" xmlns="http://www.w3.org/2000/svg">
<path d="M23.2528 6.12939H17.9411C17.1045 6.12939 16.4292 6.79932 16.4292 7.62923C16.4292 8.45914 17.1045 9.12907 17.9411 9.12907H23.2528C24.0894 9.12907 24.7647 8.45914 24.7647 7.62923C24.7647 6.79932 24.0894 6.12939 23.2528 6.12939Z" fill="#17171A"/>
<path d="M20.6021 56.7339C18.3342 56.7339 16.4897 58.5637 16.4897 60.8134C16.4897 63.0632 18.3342 64.893 20.6021 64.893C22.8699 64.893 24.7144 63.0632 24.7144 60.8134C24.7144 58.5637 22.8699 56.7339 20.6021 56.7339ZM20.6021 61.8933C19.9973 61.8933 19.5135 61.4134 19.5135 60.8134C19.5135 60.2135 19.9973 59.7336 20.6021 59.7336C21.2068 59.7336 21.6906 60.2135 21.6906 60.8134C21.6906 61.4034 21.2068 61.8933 20.6021 61.8933Z" fill="#17171A"/>
<path d="M41.1937 45.8751V6.63929C41.1937 2.97968 38.1901 0 34.5011 0H6.69259C3.0036 0 0 2.97968 0 6.63929V64.853C0 68.5126 3.0036 71.4923 6.69259 71.4923H21.3074C19.5637 79.2715 21.388 87.5206 26.085 92.5201C26.3873 92.84 26.7905 93 27.1937 93C27.5666 93 27.9294 92.87 28.2217 92.6C28.8366 92.0401 28.8668 91.0902 28.3024 90.4803C24.1296 86.0207 22.6177 78.5116 24.4118 71.4823H32.7574C31.941 75.1819 32.1829 78.7215 33.5839 81.0813C33.8661 81.5612 34.37 81.8212 34.8841 81.8212C35.1461 81.8212 35.4082 81.7512 35.6501 81.6112C36.3657 81.1913 36.6076 80.2714 36.1843 79.5614C34.9748 77.5217 34.743 73.0621 37.0814 68.0827L37.6962 66.7728L36.396 66.1129C32.1627 63.9731 29.7739 61.4434 29.2801 58.5937C28.8164 55.894 30.1368 53.3943 31.1245 51.9744L38.6033 59.3936L44.3787 65.123C44.9734 65.7129 45.9309 65.7129 46.5155 65.123C47.1001 64.5331 47.1101 63.5832 46.5155 63.0032L41.1836 57.7138V50.1246L52.9762 61.8234V91.4902C52.9762 92.3201 53.6516 92.99 54.4881 92.99C55.3247 92.99 56 92.3201 56 91.4902V60.5735L41.1937 45.8751ZM30.9834 47.5749L29.915 48.6748C29.7235 48.8647 25.3593 53.4443 26.3067 59.0636C26.9014 62.5933 29.4212 65.6329 33.7855 68.1127C33.7351 68.2327 33.7048 68.3626 33.6544 68.4826H6.69259C4.67675 68.4826 3.02376 66.8528 3.02376 64.843V6.63929C3.02376 4.6395 4.66667 2.99968 6.69259 2.99968H34.5112C36.527 2.99968 38.18 4.6295 38.18 6.63929V46.495V54.7041L30.9834 47.5749Z" fill="#17171A"/>
</svg>
