<svg width="40" height="40" viewBox="0 0 40 40" fill="none" xmlns="http://www.w3.org/2000/svg">
<g clip-path="url(#clip0)">
<rect width="40" height="40" rx="8" fill="#C045E6"/>
<rect x="8" y="10" width="20" height="20" rx="4" fill="white"/>
<rect x="30" y="10" width="20" height="20" rx="4" fill="white"/>
<path d="M19.4138 16.7273H17.7838L15.9905 17.8423V19.3622L17.6169 18.3679H17.6595V24H19.4138V16.7273Z" fill="#C6C6CC"/>
<path d="M37.3477 24H42.7313V22.5831H39.7838V22.5369L40.6539 21.7344C42.2306 20.3601 42.6425 19.6605 42.6425 18.826C42.6425 17.5156 41.5736 16.6278 39.9223 16.6278C38.3137 16.6278 37.2377 17.5547 37.2412 19.0355H38.9067C38.9067 18.3786 39.3115 17.9986 39.9152 17.9986C40.5083 17.9986 40.9379 18.3643 40.9379 18.9645C40.9379 19.5078 40.597 19.8771 40.0004 20.4134L37.3477 22.7358V24Z" fill="#C6C6CC"/>
</g>
<rect x="0.416667" y="0.416667" width="39.1667" height="39.1667" rx="7.58333" stroke="#17171A" stroke-opacity="0.05" stroke-width="0.833333"/>
<defs>
<clipPath id="clip0">
<rect width="40" height="40" rx="8" fill="white"/>
</clipPath>
</defs>
</svg>
