<svg width="28" height="28" viewBox="0 0 28 28" fill="none" xmlns="http://www.w3.org/2000/svg">
<path d="M27.125 6.12563H14.875C14.392 6.12563 14 6.51763 14 7.00063C14 7.48363 14.392 7.87563 14.875 7.87563H24.5753L19.1992 12.0564L15.344 9.60463L14.406 11.0816L18.781 13.8641C18.9228 13.9551 19.0873 14.0006 19.25 14.0006C19.439 14.0006 19.6298 13.9394 19.7873 13.8169L26.25 8.78913V20.1256H14.875C14.392 20.1256 14 20.5176 14 21.0006C14 21.4836 14.392 21.8756 14.875 21.8756H27.125C27.608 21.8756 28 21.4836 28 21.0006V7.00063C28 6.51763 27.608 6.12563 27.125 6.12563Z" fill="#1976D2"/>
<path d="M15.4333 1.07686C15.2338 0.910607 14.966 0.838857 14.714 0.891357L0.714 3.51636C0.29925 3.59336 0 3.95386 0 4.37561V23.6256C0 24.0456 0.29925 24.4079 0.714 24.4849L14.714 27.1099C14.7665 27.1204 14.8208 27.1256 14.875 27.1256C15.078 27.1256 15.2758 27.0556 15.4333 26.9244C15.6345 26.7581 15.75 26.5096 15.75 26.2506V1.75061C15.75 1.48986 15.6345 1.24311 15.4333 1.07686Z" fill="#2196F3"/>
<path d="M7.875 20.1256C5.4635 20.1256 3.5 17.7701 3.5 14.8756C3.5 11.9811 5.4635 9.62563 7.875 9.62563C10.2865 9.62563 12.25 11.9811 12.25 14.8756C12.25 17.7701 10.2865 20.1256 7.875 20.1256ZM7.875 11.3756C6.42775 11.3756 5.25 12.9454 5.25 14.8756C5.25 16.8059 6.42775 18.3756 7.875 18.3756C9.32225 18.3756 10.5 16.8059 10.5 14.8756C10.5 12.9454 9.32225 11.3756 7.875 11.3756Z" fill="#FAFAFA"/>
</svg>
