<svg width="32" height="32" viewBox="0 0 32 32" fill="none" xmlns="http://www.w3.org/2000/svg">
<g clip-path="url(#clip0)">
<path d="M11.6667 23.4824V29.6664C11.6667 30.0984 11.9441 30.4811 12.3547 30.6171C12.4574 30.6504 12.5627 30.6664 12.6667 30.6664C12.9787 30.6664 13.2801 30.5197 13.4721 30.2584L17.0894 25.3358L11.6667 23.4824Z" fill="#511FDC"/>
<path d="M31.5796 0.184475C31.2729 -0.0328584 30.8702 -0.0621917 30.5369 0.112475L0.536904 15.7791C0.182238 15.9645 -0.0270956 16.3431 0.00223769 16.7418C0.0329044 17.1418 0.298238 17.4831 0.675571 17.6125L9.01557 20.4631L26.7769 5.27647L13.0329 21.8351L27.0102 26.6125C27.1142 26.6471 27.2236 26.6658 27.3329 26.6658C27.5142 26.6658 27.6942 26.6165 27.8529 26.5205C28.1062 26.3658 28.2782 26.1058 28.3222 25.8138L31.9889 1.14714C32.0436 0.773808 31.8862 0.403142 31.5796 0.184475Z" fill="#511FDC"/>
</g>
<defs>
<clipPath id="clip0">
<rect width="32" height="32" fill="white"/>
</clipPath>
</defs>
</svg>
