<svg width="16" height="16" viewBox="0 0 16 16" fill="none" stroke-width="1.5" xmlns="http://www.w3.org/2000/svg">
<path d="M14.6663 8H10.6663L9.33301 10H6.66634L5.33301 8H1.33301" stroke-width="1.5" stroke-linecap="round" stroke-linejoin="round"/>
<path d="M3.63301 3.40663L1.33301 7.99996V12C1.33301 12.3536 1.47348 12.6927 1.72353 12.9428C1.97358 13.1928 2.31272 13.3333 2.66634 13.3333H13.333C13.6866 13.3333 14.0258 13.1928 14.2758 12.9428C14.5259 12.6927 14.6663 12.3536 14.6663 12V7.99996L12.3663 3.40663C12.256 3.18448 12.0858 2.99754 11.875 2.86681C11.6642 2.73608 11.4211 2.66676 11.173 2.66663H4.82634C4.57829 2.66676 4.33518 2.73608 4.12437 2.86681C3.91356 2.99754 3.74339 3.18448 3.63301 3.40663V3.40663Z" stroke-width="1.5" stroke-linecap="round" stroke-linejoin="round"/>
</svg>
