<svg width="20" height="20" viewBox="0 0 20 20" fill="none" xmlns="http://www.w3.org/2000/svg">
<path d="M18.3333 10H13.3333L11.6666 12.5H8.33329L6.66663 10H1.66663" stroke="inherit" stroke-width="1.5" stroke-linecap="round" stroke-linejoin="round"/>
<path d="M4.54163 4.25801L1.66663 9.99967V14.9997C1.66663 15.4417 1.84222 15.8656 2.15478 16.1782C2.46734 16.4907 2.89127 16.6663 3.33329 16.6663H16.6666C17.1087 16.6663 17.5326 16.4907 17.8451 16.1782C18.1577 15.8656 18.3333 15.4417 18.3333 14.9997V9.99967L15.4583 4.25801C15.3203 3.98033 15.1076 3.74665 14.8441 3.58324C14.5806 3.41983 14.2767 3.33317 13.9666 3.33301H6.03329C5.72322 3.33317 5.41935 3.41983 5.15583 3.58324C4.89231 3.74665 4.67961 3.98033 4.54163 4.25801V4.25801Z" stroke="inherit" stroke-width="1.5" stroke-linecap="round" stroke-linejoin="round"/>
</svg>
