<svg width="280" height="280" viewBox="0 0 280 280" fill="none" xmlns="http://www.w3.org/2000/svg">
<rect width="280" height="280" rx="80" fill="#ECECF2"/>
<g filter="url(#filter0_i)">
<rect x="67.998" y="81.9092" width="144" height="144.818" rx="28.6364" fill="#CCCCDB"/>
</g>
<path opacity="0.3" d="M71.1723 147.85C69.9127 135.779 79.3799 125.272 91.5164 125.272H188.48C200.617 125.272 210.084 135.779 208.824 147.85L204.04 193.699C202.518 208.285 190.223 219.363 175.558 219.363H104.438C89.7735 219.363 77.4785 208.285 75.9566 193.699L71.1723 147.85Z" fill="#C4C4C4"/>
<g opacity="0.85" filter="url(#filter1_bi)">
<path d="M87.5375 76.6682C86.278 64.5973 95.7451 54.0908 107.882 54.0908H172.118C184.255 54.0908 193.722 64.5973 192.462 76.6682L189.935 100.887C188.413 115.473 176.118 126.552 161.453 126.552H118.546C103.882 126.552 91.5867 115.473 90.0647 100.887L87.5375 76.6682Z" fill="white"/>
<path d="M87.5375 76.6682C86.278 64.5973 95.7451 54.0908 107.882 54.0908H172.118C184.255 54.0908 193.722 64.5973 192.462 76.6682L189.935 100.887C188.413 115.473 176.118 126.552 161.453 126.552H118.546C103.882 126.552 91.5867 115.473 90.0647 100.887L87.5375 76.6682Z" fill="#D3D3E0" fill-opacity="0.6"/>
<path d="M87.5375 76.6682C86.278 64.5973 95.7451 54.0908 107.882 54.0908H172.118C184.255 54.0908 193.722 64.5973 192.462 76.6682L189.935 100.887C188.413 115.473 176.118 126.552 161.453 126.552H118.546C103.882 126.552 91.5867 115.473 90.0647 100.887L87.5375 76.6682Z" fill="url(#paint0_linear)"/>
</g>
<g opacity="0.85" filter="url(#filter2_bi)">
<path d="M83.4438 86.4866C82.1842 74.4156 91.6514 63.9092 103.788 63.9092H176.206C188.343 63.9092 197.81 74.4156 196.55 86.4866L193.459 116.113C191.937 130.699 179.642 141.778 164.977 141.778H115.017C100.352 141.778 88.0572 130.699 86.5353 116.113L83.4438 86.4866Z" fill="white"/>
<path d="M83.4438 86.4866C82.1842 74.4156 91.6514 63.9092 103.788 63.9092H176.206C188.343 63.9092 197.81 74.4156 196.55 86.4866L193.459 116.113C191.937 130.699 179.642 141.778 164.977 141.778H115.017C100.352 141.778 88.0572 130.699 86.5353 116.113L83.4438 86.4866Z" fill="#D3D3E0" fill-opacity="0.7"/>
<path d="M83.4438 86.4866C82.1842 74.4156 91.6514 63.9092 103.788 63.9092H176.206C188.343 63.9092 197.81 74.4156 196.55 86.4866L193.459 116.113C191.937 130.699 179.642 141.778 164.977 141.778H115.017C100.352 141.778 88.0572 130.699 86.5353 116.113L83.4438 86.4866Z" fill="url(#paint1_linear)"/>
</g>
<g opacity="0.85" filter="url(#filter3_bi)">
<path d="M79.354 101.214C78.0944 89.1432 87.5616 78.6367 99.698 78.6367H180.298C192.435 78.6367 201.902 89.1432 200.642 101.214L196.986 136.248C195.464 150.834 183.17 161.913 168.505 161.913H111.491C96.8266 161.913 84.5317 150.834 83.0097 136.248L79.354 101.214Z" fill="white"/>
<path d="M79.354 101.214C78.0944 89.1432 87.5616 78.6367 99.698 78.6367H180.298C192.435 78.6367 201.902 89.1432 200.642 101.214L196.986 136.248C195.464 150.834 183.17 161.913 168.505 161.913H111.491C96.8266 161.913 84.5317 150.834 83.0097 136.248L79.354 101.214Z" fill="#D3D3E0" fill-opacity="0.8"/>
<path d="M79.354 101.214C78.0944 89.1432 87.5616 78.6367 99.698 78.6367H180.298C192.435 78.6367 201.902 89.1432 200.642 101.214L196.986 136.248C195.464 150.834 183.17 161.913 168.505 161.913H111.491C96.8266 161.913 84.5317 150.834 83.0097 136.248L79.354 101.214Z" fill="url(#paint2_linear)"/>
</g>
<g opacity="0.85" filter="url(#filter4_bi)">
<path d="M75.2641 121.668C74.0045 109.597 83.4717 99.0908 95.6082 99.0908H184.39C196.527 99.0908 205.994 109.597 204.734 121.668L200.514 162.11C198.992 176.695 186.697 187.774 172.032 187.774H107.966C93.301 187.774 81.0061 176.695 79.4841 162.11L75.2641 121.668Z" fill="white"/>
<path d="M75.2641 121.668C74.0045 109.597 83.4717 99.0908 95.6082 99.0908H184.39C196.527 99.0908 205.994 109.597 204.734 121.668L200.514 162.11C198.992 176.695 186.697 187.774 172.032 187.774H107.966C93.301 187.774 81.0061 176.695 79.4841 162.11L75.2641 121.668Z" fill="#D3D3E0" fill-opacity="0.9"/>
<path d="M75.2641 121.668C74.0045 109.597 83.4717 99.0908 95.6082 99.0908H184.39C196.527 99.0908 205.994 109.597 204.734 121.668L200.514 162.11C198.992 176.695 186.697 187.774 172.032 187.774H107.966C93.301 187.774 81.0061 176.695 79.4841 162.11L75.2641 121.668Z" fill="url(#paint3_linear)"/>
</g>
<g opacity="0.85" filter="url(#filter5_bi)">
<path d="M70.5421 147.323C69.6116 135.433 79.0085 125.272 90.9343 125.272H189.062C200.988 125.272 210.385 135.433 209.454 147.323L205.647 195.979C204.613 209.179 193.601 219.363 180.36 219.363H99.6362C86.3958 219.363 75.383 209.179 74.3499 195.979L70.5421 147.323Z" fill="white"/>
<path d="M70.5421 147.323C69.6116 135.433 79.0085 125.272 90.9343 125.272H189.062C200.988 125.272 210.385 135.433 209.454 147.323L205.647 195.979C204.613 209.179 193.601 219.363 180.36 219.363H99.6362C86.3958 219.363 75.383 209.179 74.3499 195.979L70.5421 147.323Z" fill="#D3D3E0"/>
<path d="M70.5421 147.323C69.6116 135.433 79.0085 125.272 90.9343 125.272H189.062C200.988 125.272 210.385 135.433 209.454 147.323L205.647 195.979C204.613 209.179 193.601 219.363 180.36 219.363H99.6362C86.3958 219.363 75.383 209.179 74.3499 195.979L70.5421 147.323Z" fill="url(#paint4_linear)"/>
</g>
<defs>
<filter id="filter0_i" x="67.998" y="81.9092" width="144" height="144.818" filterUnits="userSpaceOnUse" color-interpolation-filters="sRGB">
<feFlood flood-opacity="0" result="BackgroundImageFix"/>
<feBlend mode="normal" in="SourceGraphic" in2="BackgroundImageFix" result="shape"/>
<feColorMatrix in="SourceAlpha" type="matrix" values="0 0 0 0 0 0 0 0 0 0 0 0 0 0 0 0 0 0 127 0" result="hardAlpha"/>
<feOffset/>
<feGaussianBlur stdDeviation="3.68182"/>
<feComposite in2="hardAlpha" operator="arithmetic" k2="-1" k3="1"/>
<feColorMatrix type="matrix" values="0 0 0 0 0.763836 0 0 0 0 0.763836 0 0 0 0 0.82 0 0 0 1 0"/>
<feBlend mode="normal" in2="shape" result="effect1_innerShadow"/>
</filter>
<filter id="filter1_bi" x="72.6985" y="39.3635" width="134.604" height="101.915" filterUnits="userSpaceOnUse" color-interpolation-filters="sRGB">
<feFlood flood-opacity="0" result="BackgroundImageFix"/>
<feGaussianBlur in="BackgroundImage" stdDeviation="7.36364"/>
<feComposite in2="SourceAlpha" operator="in" result="effect1_backgroundBlur"/>
<feBlend mode="normal" in="SourceGraphic" in2="effect1_backgroundBlur" result="shape"/>
<feColorMatrix in="SourceAlpha" type="matrix" values="0 0 0 0 0 0 0 0 0 0 0 0 0 0 0 0 0 0 127 0" result="hardAlpha"/>
<feOffset dy="3.27273"/>
<feGaussianBlur stdDeviation="1.63636"/>
<feComposite in2="hardAlpha" operator="arithmetic" k2="-1" k3="1"/>
<feColorMatrix type="matrix" values="0 0 0 0 1 0 0 0 0 1 0 0 0 0 1 0 0 0 0.25 0"/>
<feBlend mode="normal" in2="shape" result="effect2_innerShadow"/>
</filter>
<filter id="filter2_bi" x="68.6048" y="49.1819" width="142.786" height="107.323" filterUnits="userSpaceOnUse" color-interpolation-filters="sRGB">
<feFlood flood-opacity="0" result="BackgroundImageFix"/>
<feGaussianBlur in="BackgroundImage" stdDeviation="7.36364"/>
<feComposite in2="SourceAlpha" operator="in" result="effect1_backgroundBlur"/>
<feBlend mode="normal" in="SourceGraphic" in2="effect1_backgroundBlur" result="shape"/>
<feColorMatrix in="SourceAlpha" type="matrix" values="0 0 0 0 0 0 0 0 0 0 0 0 0 0 0 0 0 0 127 0" result="hardAlpha"/>
<feOffset dy="3.27273"/>
<feGaussianBlur stdDeviation="1.63636"/>
<feComposite in2="hardAlpha" operator="arithmetic" k2="-1" k3="1"/>
<feColorMatrix type="matrix" values="0 0 0 0 1 0 0 0 0 1 0 0 0 0 1 0 0 0 0.25 0"/>
<feBlend mode="normal" in2="shape" result="effect2_innerShadow"/>
</filter>
<filter id="filter3_bi" x="64.5149" y="63.9094" width="150.968" height="112.73" filterUnits="userSpaceOnUse" color-interpolation-filters="sRGB">
<feFlood flood-opacity="0" result="BackgroundImageFix"/>
<feGaussianBlur in="BackgroundImage" stdDeviation="7.36364"/>
<feComposite in2="SourceAlpha" operator="in" result="effect1_backgroundBlur"/>
<feBlend mode="normal" in="SourceGraphic" in2="effect1_backgroundBlur" result="shape"/>
<feColorMatrix in="SourceAlpha" type="matrix" values="0 0 0 0 0 0 0 0 0 0 0 0 0 0 0 0 0 0 127 0" result="hardAlpha"/>
<feOffset dy="3.27273"/>
<feGaussianBlur stdDeviation="1.63636"/>
<feComposite in2="hardAlpha" operator="arithmetic" k2="-1" k3="1"/>
<feColorMatrix type="matrix" values="0 0 0 0 1 0 0 0 0 1 0 0 0 0 1 0 0 0 0.25 0"/>
<feBlend mode="normal" in2="shape" result="effect2_innerShadow"/>
</filter>
<filter id="filter4_bi" x="60.4251" y="84.3635" width="159.15" height="118.138" filterUnits="userSpaceOnUse" color-interpolation-filters="sRGB">
<feFlood flood-opacity="0" result="BackgroundImageFix"/>
<feGaussianBlur in="BackgroundImage" stdDeviation="7.36364"/>
<feComposite in2="SourceAlpha" operator="in" result="effect1_backgroundBlur"/>
<feBlend mode="normal" in="SourceGraphic" in2="effect1_backgroundBlur" result="shape"/>
<feColorMatrix in="SourceAlpha" type="matrix" values="0 0 0 0 0 0 0 0 0 0 0 0 0 0 0 0 0 0 127 0" result="hardAlpha"/>
<feOffset dy="3.27273"/>
<feGaussianBlur stdDeviation="1.63636"/>
<feComposite in2="hardAlpha" operator="arithmetic" k2="-1" k3="1"/>
<feColorMatrix type="matrix" values="0 0 0 0 1 0 0 0 0 1 0 0 0 0 1 0 0 0 0.25 0"/>
<feBlend mode="normal" in2="shape" result="effect2_innerShadow"/>
</filter>
<filter id="filter5_bi" x="55.7512" y="110.545" width="168.494" height="123.545" filterUnits="userSpaceOnUse" color-interpolation-filters="sRGB">
<feFlood flood-opacity="0" result="BackgroundImageFix"/>
<feGaussianBlur in="BackgroundImage" stdDeviation="7.36364"/>
<feComposite in2="SourceAlpha" operator="in" result="effect1_backgroundBlur"/>
<feBlend mode="normal" in="SourceGraphic" in2="effect1_backgroundBlur" result="shape"/>
<feColorMatrix in="SourceAlpha" type="matrix" values="0 0 0 0 0 0 0 0 0 0 0 0 0 0 0 0 0 0 127 0" result="hardAlpha"/>
<feOffset dy="3.27273"/>
<feGaussianBlur stdDeviation="1.63636"/>
<feComposite in2="hardAlpha" operator="arithmetic" k2="-1" k3="1"/>
<feColorMatrix type="matrix" values="0 0 0 0 1 0 0 0 0 1 0 0 0 0 1 0 0 0 0.25 0"/>
<feBlend mode="normal" in2="shape" result="effect2_innerShadow"/>
</filter>
<linearGradient id="paint0_linear" x1="140" y1="54.0908" x2="140" y2="126.552" gradientUnits="userSpaceOnUse">
<stop stop-color="white" stop-opacity="0.4"/>
<stop offset="0.557292" stop-color="white" stop-opacity="0"/>
</linearGradient>
<linearGradient id="paint1_linear" x1="139.997" y1="63.9092" x2="139.997" y2="141.778" gradientUnits="userSpaceOnUse">
<stop stop-color="white" stop-opacity="0.4"/>
<stop offset="0.557292" stop-color="white" stop-opacity="0"/>
</linearGradient>
<linearGradient id="paint2_linear" x1="139.998" y1="78.6367" x2="139.998" y2="161.913" gradientUnits="userSpaceOnUse">
<stop stop-color="white" stop-opacity="0.4"/>
<stop offset="0.557292" stop-color="white" stop-opacity="0"/>
</linearGradient>
<linearGradient id="paint3_linear" x1="139.999" y1="99.0908" x2="139.999" y2="187.774" gradientUnits="userSpaceOnUse">
<stop stop-color="white" stop-opacity="0.4"/>
<stop offset="0.557292" stop-color="white" stop-opacity="0"/>
</linearGradient>
<linearGradient id="paint4_linear" x1="139.998" y1="125.272" x2="139.998" y2="219.363" gradientUnits="userSpaceOnUse">
<stop stop-color="white" stop-opacity="0.4"/>
<stop offset="0.557292" stop-color="white" stop-opacity="0"/>
</linearGradient>
</defs>
</svg>
