<svg width="16" height="16" viewBox="0 0 16 16" fill="none" xmlns="http://www.w3.org/2000/svg">
<path fill-rule="evenodd" clip-rule="evenodd" d="M15.9397 7.69614C15.8705 7.53064 15.7455 7.3925 15.5827 7.31139L1.05695 0.0755156C0.78463 -0.0601384 0.459863 -0.0100606 0.237612 0.201854C0.0153609 0.413768 -0.0593364 0.744576 0.0491619 1.03643L2.63734 7.99853L0.0491617 14.9606C-0.0593356 15.2525 0.015361 15.5833 0.237612 15.7952C0.459863 16.0071 0.784629 16.0572 1.05695 15.9215L15.5429 8.70551C15.8113 8.59155 16.0004 8.31845 16.0004 7.99967C16.0004 7.8918 15.9787 7.78916 15.9397 7.69614ZM12.0305 8.76232H3.93297L2.09263 13.7128L12.0305 8.76232ZM12.035 7.23703L2.09263 2.28431L3.93381 7.23703H12.035Z" fill="#787880"/>
</svg>
