<svg width="280" height="280" viewBox="0 0 280 280" fill="none" xmlns="http://www.w3.org/2000/svg">
<rect width="280" height="280" rx="80" fill="#ECECF2"/>
<g opacity="0.8" filter="url(#filter0_b)">
<path d="M88.3945 171.923L98.213 216.291C98.6317 218.183 100.671 219.176 102.367 218.239C112.636 212.571 144.878 192.952 174.475 155.577C210.261 110.385 217.998 70 217.998 70C217.998 70 179.64 94.8437 150.878 117.812C122.116 140.781 88.3945 171.923 88.3945 171.923Z" fill="#D1D0E0"/>
<path d="M88.3945 171.923L98.213 216.291C98.6317 218.183 100.671 219.176 102.367 218.239C112.636 212.571 144.878 192.952 174.475 155.577C210.261 110.385 217.998 70 217.998 70C217.998 70 179.64 94.8437 150.878 117.812C122.116 140.781 88.3945 171.923 88.3945 171.923Z" fill="url(#paint0_linear)"/>
</g>
<g opacity="0.7" filter="url(#filter1_b)">
<path d="M113.555 183.461L100.188 217.13C99.7843 218.147 100.823 219.091 101.784 218.567C111.338 213.361 144.287 193.712 174.482 155.577C210.264 110.385 218 70 218 70C218 70 181.062 109.844 163.146 129.062C145.231 148.281 113.555 183.461 113.555 183.461Z" fill="#C4C1D6"/>
<path d="M113.555 183.461L100.188 217.13C99.7843 218.147 100.823 219.091 101.784 218.567C111.338 213.361 144.287 193.712 174.482 155.577C210.264 110.385 218 70 218 70C218 70 181.062 109.844 163.146 129.062C145.231 148.281 113.555 183.461 113.555 183.461Z" fill="url(#paint1_linear)"/>
</g>
<g opacity="0.9" filter="url(#filter2_b)">
<path d="M87.9541 172.353C87.9541 172.353 53.7407 159.716 52.046 141.454C50.3513 123.192 95.7702 105.304 140.716 89.7705C185.662 74.2365 218 70 218 70C218 70 177.239 97.0366 150.065 119.245C122.892 141.454 87.9541 172.353 87.9541 172.353Z" fill="#D8D8E6"/>
<path d="M87.9541 172.353C87.9541 172.353 53.7407 159.716 52.046 141.454C50.3513 123.192 95.7702 105.304 140.716 89.7705C185.662 74.2365 218 70 218 70C218 70 177.239 97.0366 150.065 119.245C122.892 141.454 87.9541 172.353 87.9541 172.353Z" fill="url(#paint2_linear)"/>
</g>
<g opacity="0.9" filter="url(#filter3_b)">
<path d="M113.252 183.458C113.252 183.458 159.201 208.828 179.06 200.773C198.918 192.717 206.451 151.644 210.738 131.4C215.025 111.156 218 80.7769 218 69.9998C218 69.9998 170.549 120.619 164.402 126.713C158.256 132.806 113.252 183.458 113.252 183.458Z" fill="#D8D8E5"/>
<path d="M113.252 183.458C113.252 183.458 159.201 208.828 179.06 200.773C198.918 192.717 206.451 151.644 210.738 131.4C215.025 111.156 218 80.7769 218 69.9998C218 69.9998 170.549 120.619 164.402 126.713C158.256 132.806 113.252 183.458 113.252 183.458Z" fill="url(#paint3_linear)"/>
</g>
<defs>
<filter id="filter0_b" x="70.3945" y="52" width="165.604" height="184.596" filterUnits="userSpaceOnUse" color-interpolation-filters="sRGB">
<feFlood flood-opacity="0" result="BackgroundImageFix"/>
<feGaussianBlur in="BackgroundImage" stdDeviation="9"/>
<feComposite in2="SourceAlpha" operator="in" result="effect1_backgroundBlur"/>
<feBlend mode="normal" in="SourceGraphic" in2="effect1_backgroundBlur" result="shape"/>
</filter>
<filter id="filter1_b" x="82.0996" y="52" width="153.902" height="184.717" filterUnits="userSpaceOnUse" color-interpolation-filters="sRGB">
<feFlood flood-opacity="0" result="BackgroundImageFix"/>
<feGaussianBlur in="BackgroundImage" stdDeviation="9"/>
<feComposite in2="SourceAlpha" operator="in" result="effect1_backgroundBlur"/>
<feBlend mode="normal" in="SourceGraphic" in2="effect1_backgroundBlur" result="shape"/>
</filter>
<filter id="filter2_b" x="34" y="52" width="202" height="138.353" filterUnits="userSpaceOnUse" color-interpolation-filters="sRGB">
<feFlood flood-opacity="0" result="BackgroundImageFix"/>
<feGaussianBlur in="BackgroundImage" stdDeviation="9"/>
<feComposite in2="SourceAlpha" operator="in" result="effect1_backgroundBlur"/>
<feBlend mode="normal" in="SourceGraphic" in2="effect1_backgroundBlur" result="shape"/>
</filter>
<filter id="filter3_b" x="95.252" y="52" width="140.748" height="168.353" filterUnits="userSpaceOnUse" color-interpolation-filters="sRGB">
<feFlood flood-opacity="0" result="BackgroundImageFix"/>
<feGaussianBlur in="BackgroundImage" stdDeviation="9"/>
<feComposite in2="SourceAlpha" operator="in" result="effect1_backgroundBlur"/>
<feBlend mode="normal" in="SourceGraphic" in2="effect1_backgroundBlur" result="shape"/>
</filter>
<linearGradient id="paint0_linear" x1="110.8" y1="143.125" x2="150.142" y2="188.822" gradientUnits="userSpaceOnUse">
<stop stop-color="#D1D0E0" stop-opacity="0"/>
<stop offset="1" stop-color="#AFAEBF"/>
</linearGradient>
<linearGradient id="paint1_linear" x1="122.13" y1="166.562" x2="141.769" y2="197.602" gradientUnits="userSpaceOnUse">
<stop stop-color="#C4C1D6" stop-opacity="0"/>
<stop offset="1" stop-color="#B4B1C4"/>
</linearGradient>
<linearGradient id="paint2_linear" x1="52.2439" y1="109.541" x2="217.772" y2="141.864" gradientUnits="userSpaceOnUse">
<stop stop-color="white" stop-opacity="0.25"/>
<stop offset="1" stop-color="white" stop-opacity="0"/>
</linearGradient>
<linearGradient id="paint3_linear" x1="217.83" y1="202.179" x2="127.597" y2="135.81" gradientUnits="userSpaceOnUse">
<stop stop-color="white" stop-opacity="0.2"/>
<stop offset="1" stop-color="white" stop-opacity="0"/>
</linearGradient>
</defs>
</svg>
